<svg version="1.1" id="simpshots--logo" xmlns="http://www.w3.org/2000/svg" xmlns:xlink="http://www.w3.org/1999/xlink" x="0px" y="0px" viewBox="0 0 49.79 15.34" style="enable-background:new 0 0 49.79 15.34;" xml:space="preserve">
	<g>
		<path d="M48.67,1.51l-0.18-1.48h0.17l0.09,0.92l0.02,0.18h0l0.02-0.18l0.09-0.92h0.16l-0.18,1.48H48.67z"/>
		<path d="M49.03,1.51V1.3h0.17v0.21H49.03z"/>
		<path d="M49.52,0.83h-0.09V0.69h0.09c0.06,0,0.09-0.04,0.09-0.11V0.29c0-0.09-0.03-0.15-0.09-0.15c-0.06,0-0.09,0.05-0.09,0.15 v0.26h-0.16V0.3c0-0.18,0.08-0.28,0.25-0.28s0.26,0.1,0.26,0.28v0.26c0,0.11-0.06,0.19-0.13,0.21c0.07,0.02,0.13,0.09,0.13,0.21 v0.28c0,0.18-0.1,0.28-0.26,0.28s-0.25-0.1-0.25-0.28V0.97h0.16v0.28c0,0.09,0.03,0.15,0.09,0.15c0.06,0,0.09-0.05,0.09-0.15v-0.3 C49.61,0.87,49.58,0.83,49.52,0.83z"/>
	</g>
	<g>
		<path d="M5.07,5.84H2.82V2.4c0-0.32-0.06-0.53-0.24-0.53S2.33,2.07,2.33,2.4v2.66c0,0.61,0.12,0.81,0.51,1.24l1.12,1.12 c0.79,0.85,1.12,1.38,1.12,2.76v2.25c0,1.95-0.93,2.9-2.56,2.9S0,14.37,0,12.42v-2.9h2.25v3.41c0,0.32,0.06,0.53,0.24,0.53 s0.24-0.2,0.24-0.53v-2.62c0-0.59-0.12-0.75-0.47-1.14l-1.2-1.16C0.39,7.31,0,6.68,0,5.44V2.9C0,0.99,0.97,0,2.6,0 c1.62,0,2.48,0.99,2.48,2.9L5.07,5.84L5.07,5.84z"/>
		<path d="M5.54,0.16h2.39v15.02H5.54V0.16z"/>
		<path d="M11.02,15.18l-0.37-5.89L10.51,7h-0.04l0.02,2.29v5.89H8.44V0.16h2.88l0.37,5.6l0.1,1.62h0.04l0.1-1.62l0.37-5.6h2.88 v15.02h-2.11V9.29L13.11,7h-0.04l-0.14,2.29l-0.39,5.89H11.02z"/>
		<path d="M15.69,15.18V0.16h3.08c1.34,0,2.15,0.83,2.15,2.37v4.42c0,1.54-0.81,2.37-2.15,2.37h-0.69v5.84h-2.39V15.18z M18.27,7.53 c0.2,0,0.26-0.16,0.26-0.63V2.6c0-0.47-0.06-0.63-0.26-0.63h-0.18v5.56C18.09,7.53,18.27,7.53,18.27,7.53z"/>
		<path d="M26.45,5.84H24.2V2.4c0-0.32-0.06-0.53-0.24-0.53s-0.24,0.2-0.24,0.53v2.66c0,0.61,0.12,0.81,0.51,1.24l1.12,1.12 c0.79,0.85,1.12,1.38,1.12,2.76v2.25c0,1.95-0.93,2.9-2.56,2.9s-2.52-0.95-2.52-2.9v-2.9h2.25v3.41c0,0.32,0.06,0.53,0.24,0.53 s0.24-0.2,0.24-0.53v-2.62c0-0.59-0.12-0.75-0.47-1.14l-1.2-1.16c-0.69-0.71-1.08-1.34-1.08-2.58V2.9c0-1.91,0.97-2.9,2.6-2.9 c1.62,0,2.48,0.99,2.48,2.9C26.45,2.9,26.45,5.84,26.45,5.84z"/>
		<path d="M29.84,8.58h-0.53v6.6h-2.39V0.16h2.39v6.35h0.53V0.16h2.39v15.02h-2.39V8.58z"/>
		<path d="M37.98,12.48c0,1.89-0.97,2.86-2.64,2.86c-1.66,0-2.62-0.97-2.62-2.86V2.86c0-1.89,0.95-2.86,2.62-2.86 c1.66,0,2.64,0.97,2.64,2.86V12.48z M35.34,13.48c0.2,0,0.24-0.2,0.24-0.53V2.4c0-0.32-0.04-0.53-0.24-0.53 c-0.18,0-0.22,0.2-0.22,0.53v10.55C35.12,13.27,35.16,13.48,35.34,13.48z"/>
		<path d="M41.88,2.09v13.09h-2.4V2.09h-1.26V0.16h4.93v1.93H41.88z"/>
		<path d="M48.45,5.84H46.2V2.4c0-0.32-0.06-0.53-0.24-0.53s-0.24,0.2-0.24,0.53v2.66c0,0.61,0.12,0.81,0.51,1.24l1.12,1.12 c0.79,0.85,1.12,1.38,1.12,2.76v2.25c0,1.95-0.93,2.9-2.56,2.9s-2.52-0.95-2.52-2.9v-2.9h2.25v3.41c0,0.32,0.06,0.53,0.24,0.53 s0.24-0.2,0.24-0.53v-2.62c0-0.59-0.12-0.75-0.47-1.14l-1.2-1.16c-0.69-0.71-1.08-1.34-1.08-2.58V2.9c0-1.91,0.97-2.9,2.6-2.9 c1.62,0,2.48,0.99,2.48,2.9L48.45,5.84L48.45,5.84z"/>
	</g>
</svg>
