<?xml version="1.0" encoding="utf-8"?>
<!-- Generator: Adobe Illustrator 24.1.2, SVG Export Plug-In . SVG Version: 6.00 Build 0)  -->
<svg version="1.1" id="Layer_2" xmlns="http://www.w3.org/2000/svg" xmlns:xlink="http://www.w3.org/1999/xlink" x="0px" y="0px"
	 viewBox="0 0 20 20" style="enable-background:new 0 0 20 20;" xml:space="preserve">
<style type="text/css">
	.st0{fill:#28282A;}
	.st1{fill:#393736;}
	.st2{fill:#202022;}
	.st3{fill:#464444;}
	.st4{fill:#FADA0A;}
	.st5{fill:#AF8057;}
	.st6{fill:#FDFDFD;}
	.st7{fill:#232326;}
	.st8{fill:#F2B426;}
	.st9{fill:#F3B426;}
	.st10{fill:#F2B326;}
	.st11{fill:#F0B226;}
	.st12{fill:#F1B326;}
	.st13{fill:#F9F6F2;}
	.st14{fill:#F8F5F2;}
	.st15{fill:#F2B425;}
	.st16{fill:#F0B325;}
	.st17{fill:#4A4A49;}
	.st18{fill:#FAF9F1;}
	.st19{fill:#F0F0F0;}
	.st20{fill:#F3F3F3;}
	.st21{fill:#F9F7E3;}
	.st22{fill:#FDFCF0;}
	.st23{fill:#292928;}
	.st24{fill:#DFCAB8;}
	.st25{fill:#2F2E2D;}
	.st26{fill:#2B2A29;}
</style>
<g>
	<g>
		<path class="st0" d="M7.1,5.1c0-0.2-0.2-0.3-0.4-0.3c0.1-0.1,0.1-0.3,0.2-0.4c0,0,0,0,0,0c0,0-0.1,0-0.1-0.1c0.1-0.1,0-0.2,0-0.3
			c0-0.1-0.1-0.2,0-0.4C7,3.6,7,3.5,7,3.4C6.8,3.3,6.9,3.1,6.9,3c0-0.2,0-0.4,0-0.6C6.8,1.8,6.6,1.3,6,1C6,0.9,5.9,0.9,5.9,0.8
			c0,0-0.1,0-0.1,0c-0.1,0-0.2-0.1-0.3-0.2c0-0.1-0.1-0.1-0.2-0.1c0,0,0,0,0,0.1c0,0.1,0.1,0.1,0,0.1c-0.3,0-0.6,0-0.9,0
			c0,0,0,0,0,0c0,0,0,0-0.1,0C4.2,0.8,4,0.8,4,0.9c0,0,0.1,0,0.1,0.1c0.1,0,0.1,0,0.2,0c0.4-0.1,0.8-0.1,1.3,0
			c0.2,0,0.3,0.1,0.3,0.3c0,0,0,0.1,0.1,0.1c0,0,0.1,0,0.1-0.1c0,0,0-0.1,0-0.1c0.1,0,0.1,0,0.1,0.1c0.4,0.3,0.5,0.7,0.6,1.2
			c0,0.2,0,0.5,0,0.7c0,0.1,0,0.2,0.1,0.3c0.1,0.1,0.1,0.2,0,0.2c0,0,0,0,0,0.1c0,0,0,0.1,0,0.1c0.1,0.4,0.1,0.7-0.2,1
			c0,0-0.1,0.1-0.1,0.1c0,0,0,0,0,0.1c0.1,0,0.1,0.1,0.2,0.1C6.8,5,6.8,4.9,6.9,5C7,5.1,7,5.2,7,5.3c0,0.2,0,0.3-0.1,0.5
			c0,0-0.1,0.1-0.1,0c0,0,0-0.1,0-0.1c0-0.1,0-0.2,0.1-0.3c0-0.1,0.1-0.1,0-0.2c-0.1,0-0.1,0.1-0.1,0.1C6.6,5.5,6.6,5.6,6.6,5.7
			c0,0,0,0.1,0,0.1c0,0.1,0,0.1,0,0.2c0.2,0.3,0.3,0.6,0.2,0.9C6.7,7.1,6.7,7.3,6.5,7.4C6.2,7.8,5.8,8,5.3,8.2
			c-0.2,0.1-0.5,0.1-0.7,0C4.3,8.1,3.9,8,3.6,7.8C3.2,7.4,2.9,7.1,3.1,6.5c0-0.2,0.2-0.3,0.2-0.5c0,0,0-0.1,0-0.1
			c-0.1,0,0-0.1-0.1-0.2c0-0.1,0-0.2-0.1-0.3C3.1,5.4,3,5.3,2.9,5.3c0,0.1,0,0.1,0,0.2C3,5.5,3,5.6,3,5.7c0,0.1,0.1,0.2,0,0.2
			c-0.1,0-0.1,0-0.2-0.1C2.7,5.6,2.7,5.4,2.7,5.2c0,0,0-0.1,0-0.1C2.9,5,2.9,5.2,3,5.2c0.1,0,0.1,0,0.1-0.1c0-0.1,0.1,0,0.1-0.1
			c0,0,0,0,0-0.1c0-0.1-0.1-0.1-0.1-0.2C2.9,4.5,2.8,4.2,3,3.9c0-0.1,0.1-0.1,0-0.2c0,0,0,0-0.1-0.1C2.9,3.6,2.9,3.5,2.9,3.4
			C3,3.3,3,3.1,3,3c0-0.2,0-0.5,0-0.7C3,1.9,3.2,1.5,3.5,1.2C3.6,1.2,3.7,1.1,3.8,1c0,0,0-0.1-0.1,0C3.4,1.1,3.1,1.4,3,1.7
			C2.8,2.1,2.8,2.6,2.8,3c0,0.1,0.1,0.2,0,0.3c-0.1,0.1-0.1,0.3,0,0.4c0,0,0.1,0.1,0,0.1c-0.1,0.2,0,0.5-0.2,0.7c0,0-0.1,0.1,0,0.1
			c0.1,0,0.1-0.1,0.1-0.1C2.9,4.7,3,4.8,3,5C2.7,4.9,2.6,5,2.6,5.3c0,0.2,0,0.4,0.1,0.6C2.7,5.9,2.8,6,3,6C3.2,6,3.1,6.1,3,6.2
			c-0.3,0.5-0.2,1,0.2,1.4c0,0,0.1,0.1,0.1,0.1c0.1,0.1,0,0.2-0.1,0.2C3,7.9,2.9,8.1,2.8,8.4c0,0.2-0.1,0.4-0.2,0.5
			c-0.1,0.2-0.1,0.3,0,0.5c0,0,0,0.1,0,0.1c0,0,0.1,0,0.1,0c0,0,0,0,0,0C2.9,9.6,3,9.6,3,9.7c0,0,0,0,0-0.1c0-0.1-0.2-0.2-0.3-0.3
			C2.7,9.3,2.7,9.2,2.7,9.1C2.8,8.8,2.9,8.5,3,8.3C3,8.2,3,8.1,3.1,8.1c0,0,0,0,0.1-0.1c0.1,0,0.1-0.1,0.1,0c0,0.1,0,0.1,0,0.2
			c0,0,0.1,0,0.1,0c0,0,0,0.1,0.1,0.1c0.1-0.1,0-0.3,0.1-0.4C3.8,8,4.1,8.2,4.4,8.3c0.3,0.2,0.7,0.2,1,0.1C5.7,8.3,6,8.1,6.2,7.9
			c0,0,0.1-0.1,0.1-0.1c0,0.1,0,0.2,0,0.4c0,0.1,0,0.1,0.1,0.2c0,0,0-0.1,0-0.1c0,0,0,0,0,0c0,0,0,0.1,0.1,0c0.1-0.1,0-0.2,0.1-0.3
			c0-0.1-0.1-0.1-0.1-0.1C6.5,7.8,6.5,7.6,6.6,7.5c0.2-0.2,0.3-0.4,0.3-0.7c0-0.3,0-0.6-0.2-0.8c0,0-0.1-0.1,0-0.1c0,0,0.1,0,0.1,0
			c0.1,0,0.2,0,0.2-0.1C7.2,5.6,7.2,5.4,7.1,5.1z M3.4,8.1c0,0,0-0.1,0-0.1C3.4,8.1,3.4,8.1,3.4,8.1z M6.5,8.2c0-0.1,0-0.1,0-0.2
			C6.5,8.1,6.5,8.1,6.5,8.2z"/>
		<path class="st1" d="M4,0.9C4,0.9,4,0.9,4,0.9C4,1,4,1,4,1.1c0,0,0,0.1-0.1,0.1C3.8,1.1,3.8,1.1,3.8,1c0,0,0,0-0.1,0
			c0.1,0,0.1-0.1,0.2-0.2c0.1-0.3,0.3-0.6,0.6-0.7c0.1,0,0.1,0,0.2-0.1C4.8,0,5,0,5.1,0c0.4,0.1,0.7,0.4,0.8,0.8c0,0,0,0.1-0.1,0
			C5.8,0.8,5.7,0.6,5.6,0.5C5.3,0,4.6,0.1,4.2,0.4C4.1,0.5,4,0.7,4,0.9z"/>
		<path class="st2" d="M3.3,8.2C3.4,8.3,3.4,8.3,3.3,8.2C3.4,8.1,3.4,8.1,3.4,8c0.1,0.1,0,0.2,0.1,0.3c0.1,0,0.1,0,0.1,0
			c0.2,0.1,0.3,0.2,0.5,0.2c0.2,0.1,0.3,0.2,0.4,0.3C4.6,9,4.7,9.3,4.9,9.5C5,9.7,5,9.7,5.1,9.5c0.1-0.2,0.3-0.4,0.4-0.6
			C5.7,8.7,5.8,8.5,6,8.5c0.1,0,0.2-0.1,0.3-0.1c0,0,0.1,0,0.1,0c0.1-0.1,0-0.2,0.1-0.4c0,0.1,0,0.2,0,0.3c0,0,0,0,0,0c0,0,0,0,0,0
			c0.1-0.1,0.1-0.2,0.2-0.2c0,0,0,0,0,0c0,0.2-0.2,0.3-0.3,0.3C6.3,8.5,6.1,8.6,5.9,8.7c0.2,0.2,0.4,0.5,0.5,0.8
			c0,0.1,0.1,0.2,0.1,0.3c0,0,0,0.1-0.1,0.1C6.3,9.4,6.1,9,5.8,8.7C5.6,9,5.3,9.4,5.1,9.7C5,9.9,5,9.9,4.9,9.7
			c-0.2-0.3-0.4-0.6-0.6-1C4,9.1,3.7,9.5,3.6,9.9c0,0.1-0.1,0.1-0.2,0.1C3.3,9.9,3.2,9.8,3,9.7c0,0,0,0,0,0c0.1,0,0.2,0.1,0.3,0.2
			c0.1,0.1,0.1,0.1,0.2,0C3.6,9.5,3.8,9.2,4,8.9C4.1,8.7,4.1,8.7,4,8.7C3.7,8.5,3.5,8.5,3.3,8.2c-0.1,0.1-0.2,0-0.2-0.1
			c0,0,0-0.1,0-0.1C3.2,8.1,3.3,8.1,3.3,8.2z"/>
		<path class="st2" d="M6.8,8.1C6.8,8.1,6.8,8.1,6.8,8.1c-0.1,0-0.2,0-0.2-0.1c0,0,0,0-0.1-0.1C6.7,7.9,6.8,8,6.8,8.1z"/>
		<path class="st3" d="M6.9,4.5C6.9,4.5,7,4.4,6.9,4.5c0.1,0,0.2,0,0.2,0.1C7,4.6,7,4.5,6.9,4.5z"/>
		<path class="st4" d="M3.8,1c0.1,0,0,0.1,0.1,0.1c0-0.1,0-0.2,0.2-0.2c0.5-0.1,1-0.1,1.5,0c0.1,0,0.1,0,0.2,0
			c0.2,0,0.3,0.1,0.2,0.3c0,0,0,0.1,0,0.1c0-0.1,0-0.1,0-0.2C6,1,6,1,6,1.1c0.4,0.3,0.5,0.8,0.6,1.3c0,0.2,0.1,0.3,0,0.5
			c0,0.1,0,0.2-0.2,0.2c0.2,0.2,0.2,0.3,0.1,0.4c-0.1,0-0.1,0-0.2-0.1C5.6,3,5,3.7,5,4.2c0,0.1,0.1,0.3,0.2,0.4
			c0.1,0.1,0.2,0.2,0.2,0.3C5.5,5,5.5,5.2,5.3,5.3C5,5.5,4.7,5.5,4.4,5.2C4.3,5,4.3,4.8,4.5,4.7c0.3-0.2,0.3-0.5,0.2-0.8
			C4.5,3.5,4.2,3.4,3.9,3.3c-0.2,0-0.4,0-0.5,0.1c0,0-0.1,0-0.2,0C3.1,3.3,3.1,3.3,3.3,3C3.2,3,3.2,2.9,3.1,2.8c0-0.5,0-0.9,0.2-1.4
			c0.1-0.1,0.1-0.2,0.2-0.3C3.6,1.1,3.7,1.1,3.8,1z"/>
		<path class="st5" d="M6.8,6.9C6.7,7.3,6.6,7.5,6.3,7.7C6,7.9,5.7,8.1,5.4,8.3c-0.3,0.1-0.6,0.1-0.9,0C4.1,8,3.6,7.9,3.2,7.5
			C3,7.2,2.9,6.9,3,6.5c0.1,0.1,0,0.3,0,0.3c0-0.6,0.4-1,0.9-1.3c0.1,0,0.1-0.1,0.2-0.1c0,0,0,0,0-0.1c0.1-0.1,0.1,0,0.2,0.1
			C4.7,5.6,5,5.6,5.2,5.5c0.3-0.2,0.3-0.2,0.6,0C6,5.6,6.3,5.8,6.5,6.1c0.2,0.2,0.3,0.5,0.3,0.8C6.8,6.9,6.8,6.9,6.8,6.9z"/>
		<path class="st6" d="M3.3,5C2.8,4.6,2.8,4.2,3,3.7c0-0.1,0.1-0.1,0.1-0.2c0.4-0.3,0.9-0.3,1.3,0c0.2,0.2,0.4,0.5,0.3,0.8
			C4.6,4.6,4.4,4.9,4.2,5C4,5.2,3.8,5.2,3.5,5.1C3.4,5.1,3.3,5.1,3.3,5z"/>
		<path class="st6" d="M6.8,3.7C7,4.2,6.9,4.6,6.5,5C6.4,5.1,6.2,5.1,6.1,5.1c-0.3,0-0.6-0.1-0.7-0.4c0,0,0-0.1-0.1-0.1
			C5,4.4,5,4,5.2,3.6c0.4-0.5,0.9-0.5,1.4-0.1C6.7,3.5,6.8,3.6,6.8,3.7z"/>
		<path class="st6" d="M3.1,8.1c0.1,0.1,0.2,0.2,0.3,0.2c0.2,0.1,0.4,0.2,0.6,0.3c0.1,0.1,0.2,0.1,0.1,0.2C4,9,3.9,9.2,3.8,9.4
			C3.7,9.6,3.6,9.8,3.5,10C3.4,9.9,3.2,9.7,3.1,9.6C3,9.5,2.9,9.4,2.8,9.3C2.7,9.3,2.6,9.2,2.7,9c0.1-0.2,0.2-0.5,0.2-0.7
			C2.9,8.2,3,8.2,3,8.1C3.1,8,3.1,8.1,3.1,8.1z"/>
		<path class="st7" d="M6.8,3.7c-0.4-0.5-1-0.6-1.3-0.3C5.2,3.7,5.1,3.9,5.1,4.3c0,0.1,0,0.3,0.2,0.4c0,0,0.1,0.1,0.1,0.1
			C5.7,5.2,6,5.2,6.5,5c0,0,0,0,0,0c0,0.1-0.1,0.1-0.2,0.1c-0.2,0.1-0.5,0.1-0.7,0c-0.1,0-0.1-0.1-0.2,0c0,0.1,0.1,0.1,0.1,0.1
			c0.3,0.1,0.6,0.2,0.8,0.4c0.1,0,0.1,0.1,0.1,0.2c0,0,0.1,0.1,0,0.1c-0.1,0-0.1,0-0.1-0.1C6.2,5.7,6,5.6,5.8,5.5
			c-0.3-0.2-0.3-0.2-0.5,0C5,5.7,4.7,5.7,4.4,5.4c-0.1-0.1-0.1-0.1-0.2,0C4.2,5.5,4.1,5.5,4,5.5C3.8,5.6,3.6,5.8,3.5,5.9
			C3.4,6,3.4,6,3.3,6c0,0,0,0,0-0.1c0-0.2,0.2-0.2,0.3-0.3c0.2-0.2,0.4-0.2,0.6-0.3c0,0,0.1,0,0.1-0.1c-0.1,0-0.1,0-0.2,0
			c-0.2,0.1-0.5,0.1-0.7,0c-0.1,0-0.1,0-0.1-0.1c0,0,0,0,0,0C3.5,5.1,3.7,5.2,4,5.1C4.2,5,4.3,5,4.4,4.8c0-0.1,0.1-0.2,0.2-0.2
			c0.1-0.1,0.2-0.2,0.2-0.3c0-0.3-0.2-0.7-0.5-0.8c-0.3-0.2-0.8-0.1-1,0.2c0,0-0.1,0.1-0.1,0.1c0,0,0,0,0,0c0-0.1,0.1-0.2,0.2-0.2
			c0.4-0.2,0.7-0.2,1.1,0c0.3,0.2,0.5,0.5,0.5,0.9c0,0.2,0,0.3-0.2,0.4C4.4,4.8,4.3,5,4.4,5.2C4.6,5.5,5,5.6,5.3,5.3
			C5.4,5,5.4,4.8,5.2,4.7C5,4.5,5,4.3,5,4c0.1-0.6,0.8-1.1,1.5-0.6C6.7,3.4,6.8,3.5,6.8,3.7C6.8,3.7,6.8,3.7,6.8,3.7z"/>
		<path class="st8" d="M3.2,3.4C3.1,3.5,3,3.6,3,3.7c0,0-0.1,0.1-0.1,0c0-0.1-0.1-0.2,0-0.2c0.1-0.2,0.1-0.3,0-0.5
			c0-0.4,0-0.7,0.1-1.1c0.1-0.3,0.2-0.5,0.5-0.7c0,0.1-0.1,0.2-0.1,0.3C3.2,1.9,3.1,2.4,3.2,2.8C3.2,3,3.2,3,3.4,3
			C3.4,3.2,3.1,3.2,3.2,3.4z"/>
		<path class="st9" d="M6.4,8.3c0,0-0.1,0-0.1,0C6.2,8.3,6.3,8.2,6.2,8.1C6.2,8.1,6.1,8.2,6,8.2c-0.7,0.5-1.4,0.5-2.2,0
			C3.7,8.2,3.7,8.2,3.6,8.3c0,0-0.1,0-0.1,0c0-0.2,0-0.3,0-0.5C3.8,8,4,8.1,4.3,8.2c0.5,0.3,0.9,0.2,1.4,0c0.3-0.1,0.5-0.3,0.8-0.5
			C6.4,7.9,6.4,8.1,6.4,8.3z"/>
		<path class="st10" d="M6.8,3.7C6.7,3.6,6.6,3.5,6.5,3.4c0.1-0.1,0.1-0.1,0-0.2c0,0-0.1-0.1-0.1-0.1c0,0-0.1,0-0.1-0.1
			c0,0,0.1,0,0.1,0c0.1,0,0.1,0,0.1-0.1c0-0.6-0.1-1.1-0.4-1.6C6.2,1.2,6.1,1.2,6,1.1c0.5,0.3,0.7,0.8,0.8,1.3c0,0.2,0,0.5,0,0.7
			c0,0.1,0,0.2,0.1,0.3C7,3.5,6.9,3.6,6.8,3.7C6.8,3.7,6.8,3.7,6.8,3.7z"/>
		<path class="st4" d="M3.2,5c0.3,0.2,0.6,0.2,1,0.1c0.1,0,0.1-0.1,0.1,0.1c0,0.1,0,0.1-0.1,0.1C3.9,5.3,3.6,5.5,3.3,5.7
			c-0.1,0-0.1,0.1-0.2,0.1c0-0.1-0.1-0.2-0.1-0.3C3,5.4,3,5.3,2.9,5.3c-0.1,0-0.1,0.1-0.2,0.1c-0.1,0,0-0.1,0-0.2c0,0,0-0.1,0-0.1
			c0.1,0,0.2,0.1,0.3,0.1c0.1-0.1,0-0.2,0-0.2C3.1,5,3.2,5,3.2,5z"/>
		<path class="st4" d="M5.5,5.2c0,0,0-0.1,0-0.1c0.4,0.2,0.7,0.2,1.1,0c0,0,0.1,0,0.1-0.1c0,0-0.1,0.1,0.1,0.1C6.8,5.1,6.9,4.9,7,5
			c0.1,0.1,0.1,0.2,0.1,0.3c-0.1,0-0.2,0-0.2-0.1c-0.1,0-0.1,0.1-0.1,0.2c0,0.1-0.1,0.3-0.1,0.4c0,0-0.1,0-0.1,0
			C6.3,5.5,6,5.3,5.6,5.3C5.5,5.3,5.5,5.3,5.5,5.2z"/>
		<path class="st11" d="M2.7,5.2c0,0.1,0,0.1,0,0.2c0.1,0,0.1,0,0.2,0c0,0,0,0.1,0,0.1c0.2,0.1,0.2,0.3,0.2,0.4c0,0.1,0,0.1-0.1,0.1
			c-0.1,0-0.2-0.1-0.2-0.1C2.7,5.6,2.6,5.4,2.7,5.2z"/>
		<path class="st12" d="M6.8,5.2c0.1,0,0.2,0,0.2,0.1c0,0.2,0,0.4-0.1,0.5c0,0.1-0.1,0.1-0.2,0.1c-0.1,0-0.1-0.1,0-0.2
			C6.7,5.5,6.8,5.4,6.8,5.2z"/>
		<path class="st13" d="M5.8,5.5c0.3,0,0.5,0.2,0.7,0.4c0,0,0.1,0.1,0.1,0.1c0.2,0.3,0.3,0.6,0.3,1c0,0-0.1,0-0.1-0.1
			C6.7,6.3,6.4,6,6,5.7C5.9,5.6,5.8,5.6,5.8,5.5z"/>
		<path class="st14" d="M3.3,6C3.5,5.8,3.7,5.6,4,5.5c0,0,0,0,0,0C3.8,5.7,3.6,5.9,3.3,6C3.2,6.3,3.1,6.6,3.1,6.9C3,6.8,3,6.6,3,6.5
			C3.1,6.3,3.2,6.2,3.3,6z"/>
		<path class="st15" d="M5.5,5.2c0,0.1,0.1,0,0.2,0.1c0.4,0.1,0.7,0.3,1,0.6c0,0,0,0.1-0.1,0.1c-0.3-0.3-0.6-0.4-1-0.6
			C5.5,5.3,5.4,5.3,5.5,5.2z"/>
		<path class="st16" d="M3.2,5.8c0.3-0.2,0.6-0.5,1.1-0.5c0,0,0.1,0,0.1-0.1c0.1,0.1,0,0.1-0.1,0.1C3.9,5.4,3.5,5.6,3.3,5.9
			c0,0,0,0,0,0.1C3.1,5.9,3.2,5.8,3.2,5.8z"/>
		<path class="st17" d="M5.3,0.5C5,0.4,4.5,0.5,4.3,0.7c0,0,0,0,0,0c0-0.1,0.1-0.1,0.1-0.1C4.7,0.4,5,0.3,5.3,0.5
			C5.4,0.5,5.3,0.5,5.3,0.5z"/>
		<path class="st18" d="M3,5.2C3,5.2,3,5.3,3,5.2c-0.2,0-0.3,0-0.3-0.1C2.8,5,2.9,5,3,5.2z"/>
		<path class="st19" d="M3.3,8.2C3.3,8.2,3.2,8.1,3.2,8.1C3.2,7.9,3.3,8,3.3,8c0.1,0,0,0.1,0,0.1C3.4,8.1,3.4,8.2,3.3,8.2z"/>
		<path class="st20" d="M6.6,8c0,0,0.1,0.1,0.1,0.1c0,0,0,0,0,0c-0.1,0-0.1,0.1-0.2,0.2C6.5,8.2,6.5,8.1,6.6,8C6.5,8,6.6,8,6.6,8z"
			/>
		<path class="st21" d="M7,5C6.9,5,6.8,5,6.8,5.1c0,0-0.1,0-0.1,0C6.8,4.9,6.8,4.9,7,5z"/>
		<path class="st4" d="M3.6,8.3c0-0.1,0-0.2,0-0.3c0.1,0,0.1,0.1,0.2,0.1c0.7,0.4,1.6,0.5,2.3-0.2c0,0,0,0,0.1-0.1
			c0,0.1,0,0.3,0.1,0.4c0,0-0.1,0.1-0.1,0.1C5.9,8.5,5.7,8.7,5.5,9C5.4,9.3,5.2,9.5,5,9.8C4.8,9.5,4.6,9.2,4.4,8.9
			C4.4,8.7,4.2,8.7,4.1,8.6C3.9,8.5,3.8,8.4,3.6,8.3z"/>
		<path class="st6" d="M6.8,8.1c0.1,0,0.1,0.1,0.1,0.1C7,8.5,7.1,8.8,7.2,9c0.1,0.1,0,0.2,0,0.3C7,9.5,6.8,9.7,6.6,9.9
			C6.4,10,6.5,9.8,6.4,9.7C6.3,9.3,6.1,9,5.9,8.6c0.2-0.1,0.3-0.1,0.5-0.2C6.5,8.4,6.7,8.3,6.8,8.1z"/>
		<path class="st15" d="M5.3,5.3C5.3,5.5,5,5.6,4.8,5.5c-0.2,0-0.3-0.2-0.4-0.4C4.7,5.4,5,5.4,5.3,5.3z"/>
		<path class="st22" d="M4.5,4.8C4.7,4.7,5,4.6,5.1,4.7c0,0,0.1,0,0,0.1c0,0,0,0,0,0C5,4.8,4.9,4.7,4.8,4.8C4.7,4.8,4.7,4.9,4.5,4.8
			z"/>
		<path class="st23" d="M6.3,6.9C6.5,7,6.5,7.1,6.5,7.3c0,0-0.1-0.1-0.2-0.1c-0.9,0.4-1.8,0.3-2.8,0c-0.1,0-0.2-0.1-0.2,0.1
			C3.3,7.1,3.3,7,3.5,6.9c0,0.1-0.1,0.1,0,0.2c0.9,0.3,1.8,0.4,2.7,0C6.4,7.1,6.4,7.1,6.3,6.9z"/>
		<path class="st24" d="M4,5.5C4,5.5,4,5.5,4,5.5c0-0.1,0.1-0.1,0.2-0.1C4.2,5.5,4.1,5.5,4,5.5z"/>
		<path class="st25" d="M3.7,4.1c0.1,0,0.2,0.1,0.2,0.1c0,0.1-0.1,0.2-0.2,0.2c-0.1,0-0.2-0.1-0.2-0.2C3.5,4.2,3.6,4.1,3.7,4.1z"/>
		<path class="st26" d="M5.9,4.2c0-0.1,0.1-0.2,0.2-0.2c0.1,0,0.2,0.1,0.2,0.2c0,0.1-0.1,0.2-0.2,0.2C6,4.4,5.9,4.3,5.9,4.2z"/>
	</g>
</g>
<g>
	<g>
		<path class="st0" d="M17.2,15.1c0-0.2-0.2-0.3-0.4-0.3c0.1-0.1,0.1-0.3,0.2-0.4c0,0,0,0,0,0c0,0-0.1,0-0.1-0.1
			c0.1-0.1,0-0.2,0-0.3c0-0.1-0.1-0.2,0-0.4c0.1-0.1,0.1-0.2,0-0.3c-0.1-0.1-0.1-0.3-0.1-0.4c0-0.2,0-0.4,0-0.6
			c0-0.6-0.3-1.1-0.8-1.4c-0.1,0-0.1-0.1-0.1-0.1c0,0-0.1,0-0.1,0c-0.1,0-0.2-0.1-0.3-0.2c0-0.1-0.1-0.1-0.2-0.1c0,0,0,0,0,0.1
			c0,0.1,0.1,0.1,0,0.1c-0.3,0-0.6,0-0.9,0c0,0,0,0,0,0c0,0,0,0-0.1,0c-0.1,0.1-0.2,0.1-0.3,0.2c0,0,0.1,0,0.1,0.1
			c0.1,0,0.1,0,0.2,0c0.4-0.1,0.8-0.1,1.3,0c0.2,0,0.3,0.1,0.3,0.3c0,0,0,0.1,0.1,0.1c0,0,0.1,0,0.1-0.1c0,0,0-0.1,0-0.1
			c0.1,0,0.1,0,0.1,0.1c0.4,0.3,0.5,0.7,0.6,1.2c0,0.2,0,0.5,0,0.7c0,0.1,0,0.2,0.1,0.3c0.1,0.1,0.1,0.2,0,0.2c0,0,0,0,0,0.1
			c0,0,0,0.1,0,0.1c0.1,0.4,0.1,0.7-0.2,1c0,0-0.1,0.1-0.1,0.1c0,0,0,0,0,0.1c0.1,0,0.1,0.1,0.2,0.1c0.1-0.1,0.1-0.2,0.2-0.1
			c0.1,0.1,0.1,0.2,0.1,0.3c0,0.2,0,0.3-0.1,0.5c0,0-0.1,0.1-0.1,0c0,0,0-0.1,0-0.1c0-0.1,0-0.2,0.1-0.3c0-0.1,0.1-0.1,0-0.2
			c-0.1,0-0.1,0.1-0.1,0.1c-0.1,0.1-0.1,0.3-0.1,0.4c0,0,0,0.1,0,0.1c0,0.1,0,0.1,0,0.2c0.2,0.3,0.3,0.6,0.2,0.9
			c-0.1,0.2-0.1,0.4-0.3,0.5c-0.4,0.3-0.7,0.6-1.2,0.8c-0.2,0.1-0.5,0.1-0.7,0c-0.3-0.1-0.7-0.3-0.9-0.5c-0.5-0.3-0.7-0.7-0.6-1.2
			c0-0.2,0.2-0.3,0.2-0.5c0,0,0-0.1,0-0.1c-0.1,0,0-0.1-0.1-0.2c0-0.1,0-0.2-0.1-0.3c-0.1-0.1-0.1-0.2-0.3-0.2c0,0.1,0,0.1,0,0.2
			c0.1,0.1,0.1,0.1,0.1,0.2c0,0.1,0.1,0.2,0,0.2c-0.1,0-0.1,0-0.2-0.1c-0.1-0.2-0.2-0.3-0.1-0.5c0,0,0-0.1,0-0.1
			c0.1-0.1,0.2,0,0.3,0.1c0.1,0,0.1,0,0.1-0.1c0-0.1,0.1,0,0.1-0.1c0,0,0,0,0-0.1c0-0.1-0.1-0.1-0.1-0.2c-0.2-0.3-0.3-0.6-0.1-0.9
			c0-0.1,0.1-0.1,0-0.2c0,0,0,0-0.1-0.1c-0.1-0.1-0.1-0.2-0.1-0.2c0-0.1,0.1-0.3,0-0.4c0-0.2,0-0.5,0-0.7c0.1-0.4,0.2-0.8,0.6-1.1
			c0.1-0.1,0.2-0.1,0.3-0.2c0,0,0-0.1-0.1,0c-0.3,0.2-0.6,0.4-0.7,0.8c-0.2,0.4-0.2,0.8-0.2,1.2c0,0.1,0.1,0.2,0,0.3
			c-0.1,0.1-0.1,0.3,0,0.4c0,0,0.1,0.1,0,0.1c-0.1,0.2,0,0.5-0.2,0.7c0,0-0.1,0.1,0,0.1c0.1,0,0.1-0.1,0.1-0.1
			c0.1,0.2,0.2,0.3,0.2,0.5c-0.3-0.1-0.4,0-0.4,0.3c0,0.2,0,0.4,0.1,0.6c0.1,0.1,0.1,0.2,0.3,0.2c0.2,0,0.2,0.1,0.1,0.2
			c-0.3,0.5-0.2,1,0.2,1.4c0,0,0.1,0.1,0.1,0.1c0.1,0.1,0,0.2-0.1,0.2c-0.3,0-0.4,0.2-0.5,0.5c0,0.2-0.1,0.4-0.2,0.5
			c-0.1,0.2-0.1,0.3,0,0.5c0,0,0,0.1,0,0.1c0,0,0.1,0,0.1,0c0,0,0,0,0,0c0.1,0.1,0.1,0.1,0.2,0.2c0,0,0,0,0-0.1
			c0-0.1-0.2-0.2-0.3-0.3c-0.1-0.1-0.1-0.2-0.1-0.3c0.1-0.3,0.2-0.5,0.2-0.8c0-0.1,0.1-0.1,0.2-0.1c0,0,0,0,0.1-0.1
			c0.1,0,0.1-0.1,0.1,0c0,0.1,0,0.1,0,0.2c0,0,0.1,0,0.1,0c0,0,0,0.1,0.1,0.1c0.1-0.1,0-0.3,0.1-0.4c0.3,0.1,0.5,0.3,0.8,0.4
			c0.3,0.2,0.7,0.2,1,0.1c0.3-0.1,0.6-0.3,0.9-0.5c0,0,0.1-0.1,0.1-0.1c0,0.1,0,0.2,0,0.4c0,0.1,0,0.1,0.1,0.2c0,0,0-0.1,0-0.1
			c0,0,0,0,0,0c0,0,0,0.1,0.1,0c0.1-0.1,0-0.2,0.1-0.3c0-0.1-0.1-0.1-0.1-0.1c-0.1-0.1-0.1-0.3,0.1-0.4c0.2-0.2,0.3-0.4,0.3-0.7
			c0-0.3,0-0.6-0.2-0.8c0,0-0.1-0.1,0-0.1c0,0,0.1,0,0.1,0c0.1,0,0.2,0,0.2-0.1C17.2,15.6,17.2,15.4,17.2,15.1z M13.5,18.1
			c0,0,0-0.1,0-0.1C13.5,18.1,13.5,18.1,13.5,18.1z M16.5,18.2c0-0.1,0-0.1,0-0.2C16.5,18.1,16.5,18.1,16.5,18.2z"/>
		<path class="st1" d="M14,10.9C14,10.9,14.1,10.9,14,10.9c0.1,0.1,0,0.1,0,0.2c0,0,0,0.1-0.1,0.1c-0.1,0-0.1-0.1-0.1-0.2
			c0,0,0,0-0.1,0c0.1,0,0.1-0.1,0.2-0.2c0.1-0.3,0.3-0.6,0.6-0.7c0.1,0,0.1,0,0.2-0.1c0.1,0,0.3,0,0.4,0c0.4,0.1,0.7,0.4,0.8,0.8
			c0,0,0,0.1-0.1,0c-0.1-0.1-0.1-0.3-0.2-0.4c-0.4-0.5-1.1-0.4-1.4-0.1C14.1,10.5,14.1,10.7,14,10.9z"/>
		<path class="st2" d="M13.4,18.2C13.4,18.3,13.4,18.3,13.4,18.2c0.1-0.1,0.1-0.2,0.1-0.2c0.1,0.1,0,0.2,0.1,0.3c0.1,0,0.1,0,0.1,0
			c0.2,0.1,0.3,0.2,0.5,0.2c0.2,0.1,0.3,0.2,0.4,0.3c0.1,0.2,0.3,0.4,0.4,0.7c0.1,0.2,0.1,0.2,0.3,0c0.1-0.2,0.3-0.4,0.4-0.6
			c0.1-0.2,0.2-0.3,0.5-0.4c0.1,0,0.2-0.1,0.3-0.1c0,0,0.1,0,0.1,0c0.1-0.1,0-0.2,0.1-0.4c0,0.1,0,0.2,0,0.3c0,0,0,0,0,0
			c0,0,0,0,0,0c0.1-0.1,0.1-0.2,0.2-0.2c0,0,0,0,0,0c0,0.2-0.2,0.3-0.3,0.3c-0.2,0.1-0.3,0.1-0.5,0.2c0.2,0.2,0.4,0.5,0.5,0.8
			c0,0.1,0.1,0.2,0.1,0.3c0,0,0,0.1-0.1,0.1c-0.1-0.4-0.3-0.8-0.6-1.1c-0.2,0.4-0.5,0.7-0.7,1c-0.1,0.1-0.1,0.1-0.2,0
			c-0.2-0.3-0.4-0.6-0.6-1c-0.3,0.4-0.5,0.7-0.7,1.2c0,0.1-0.1,0.1-0.2,0.1c-0.1-0.1-0.3-0.2-0.4-0.3c0,0,0,0,0,0
			c0.1,0,0.2,0.1,0.3,0.2c0.1,0.1,0.1,0.1,0.2,0c0.1-0.3,0.3-0.6,0.5-0.9c0.1-0.2,0.1-0.1-0.1-0.2C13.8,18.6,13.6,18.5,13.4,18.2
			c-0.1,0.1-0.2,0-0.2-0.1c0,0,0-0.1,0-0.1C13.3,18.1,13.4,18.1,13.4,18.2z"/>
		<path class="st2" d="M16.9,18.1C16.9,18.1,16.8,18.1,16.9,18.1c-0.1,0-0.2,0-0.2-0.1c0,0,0,0-0.1-0.1C16.7,17.9,16.8,18,16.9,18.1
			z"/>
		<path class="st3" d="M17,14.5C17,14.5,17,14.5,17,14.5c0.1,0,0.2,0,0.2,0.1C17,14.6,17,14.5,17,14.5z"/>
		<path class="st4" d="M13.8,11c0.1,0,0,0.1,0.1,0.1c0-0.1,0-0.2,0.2-0.2c0.5-0.1,1-0.1,1.5,0c0.1,0,0.1,0,0.2,0
			c0.2,0,0.3,0.1,0.2,0.3c0,0,0,0.1,0,0.1c0-0.1,0-0.1,0-0.2c0-0.1,0,0,0.1,0c0.4,0.3,0.5,0.8,0.6,1.3c0,0.2,0.1,0.3,0,0.5
			c0,0.1,0,0.2-0.2,0.2c0.2,0.2,0.2,0.3,0.1,0.4c-0.1,0-0.1,0-0.2-0.1c-0.7-0.3-1.3,0.3-1.3,0.9c0,0.1,0.1,0.3,0.2,0.4
			c0.1,0.1,0.2,0.2,0.2,0.3c0.1,0.1,0.1,0.3-0.1,0.4c-0.3,0.2-0.7,0.2-1-0.1c-0.1-0.2-0.1-0.4,0.1-0.5c0.3-0.2,0.3-0.5,0.2-0.8
			c-0.1-0.3-0.4-0.5-0.8-0.6c-0.2,0-0.4,0-0.5,0.1c0,0-0.1,0-0.2,0c-0.1-0.1-0.1-0.2,0.1-0.4c-0.1,0-0.2-0.1-0.2-0.2
			c0-0.5,0-0.9,0.2-1.4c0.1-0.1,0.1-0.2,0.2-0.3C13.7,11.1,13.8,11.1,13.8,11z"/>
		<path class="st5" d="M16.9,17c-0.1,0.3-0.3,0.5-0.5,0.7c-0.3,0.2-0.6,0.4-0.9,0.6c-0.3,0.1-0.6,0.1-0.9,0
			c-0.5-0.2-0.9-0.4-1.3-0.8c-0.2-0.3-0.3-0.6-0.2-1c0.1,0.1,0,0.3,0,0.3c0-0.6,0.4-1,0.9-1.3c0.1,0,0.1-0.1,0.2-0.1c0,0,0,0,0-0.1
			c0.1-0.1,0.1,0,0.2,0.1c0.2,0.2,0.5,0.2,0.7,0.1c0.3-0.2,0.3-0.2,0.6,0c0.3,0.2,0.5,0.3,0.7,0.6c0.2,0.2,0.3,0.5,0.3,0.8
			C16.8,16.9,16.9,16.9,16.9,17z"/>
		<path class="st6" d="M13.3,15c-0.4-0.4-0.5-0.8-0.2-1.3c0-0.1,0.1-0.1,0.1-0.2c0.4-0.3,0.9-0.3,1.3,0c0.2,0.2,0.4,0.5,0.3,0.8
			c-0.1,0.3-0.3,0.5-0.5,0.7c-0.2,0.2-0.4,0.2-0.7,0.1C13.5,15.1,13.4,15.1,13.3,15z"/>
		<path class="st6" d="M16.8,13.8c0.2,0.5,0.1,0.8-0.3,1.2c-0.1,0.2-0.3,0.2-0.4,0.2c-0.3,0-0.6-0.1-0.7-0.4c0,0,0-0.1-0.1-0.1
			c-0.3-0.3-0.3-0.7,0-1.1c0.4-0.5,0.9-0.5,1.4-0.1C16.7,13.6,16.8,13.6,16.8,13.8z"/>
		<path class="st6" d="M13.2,18.1c0.1,0.1,0.2,0.2,0.3,0.2c0.2,0.1,0.4,0.2,0.6,0.3c0.1,0.1,0.2,0.1,0.1,0.2
			c-0.1,0.2-0.2,0.3-0.4,0.5c-0.1,0.2-0.2,0.4-0.3,0.6c-0.2-0.1-0.3-0.2-0.4-0.3c-0.1-0.1-0.2-0.2-0.3-0.3c-0.1-0.1-0.1-0.2-0.1-0.3
			c0.1-0.2,0.2-0.5,0.2-0.7c0-0.1,0.1-0.1,0.1-0.2C13.1,18,13.2,18.1,13.2,18.1z"/>
		<path class="st7" d="M16.8,13.8c-0.4-0.5-1-0.6-1.3-0.3c-0.2,0.2-0.4,0.5-0.3,0.8c0,0.1,0,0.3,0.2,0.4c0,0,0.1,0.1,0.1,0.1
			c0.3,0.4,0.7,0.5,1.2,0.2c0,0,0,0,0,0c0,0.1-0.1,0.1-0.2,0.1c-0.2,0.1-0.5,0.1-0.7,0c-0.1,0-0.1-0.1-0.2,0c0,0.1,0.1,0.1,0.1,0.1
			c0.3,0.1,0.6,0.2,0.8,0.4c0.1,0,0.1,0.1,0.1,0.2c0,0,0.1,0.1,0,0.1c-0.1,0-0.1,0-0.1-0.1c-0.2-0.2-0.4-0.3-0.6-0.4
			c-0.3-0.2-0.3-0.2-0.5,0c-0.3,0.2-0.6,0.2-0.8-0.1c-0.1-0.1-0.1-0.1-0.2,0c-0.1,0.1-0.2,0.1-0.2,0.1c-0.2,0.1-0.4,0.2-0.5,0.4
			c0,0-0.1,0.1-0.2,0.1c0,0,0,0,0-0.1c0-0.2,0.2-0.2,0.3-0.3c0.2-0.2,0.4-0.2,0.6-0.3c0,0,0.1,0,0.1-0.1c-0.1,0-0.1,0-0.2,0
			c-0.2,0.1-0.5,0.1-0.7,0c-0.1,0-0.1,0-0.1-0.1c0,0,0,0,0,0c0.2,0.1,0.5,0.2,0.8,0.1c0.2-0.1,0.3-0.1,0.3-0.3
			c0-0.1,0.1-0.2,0.2-0.2c0.1-0.1,0.2-0.2,0.2-0.3c0-0.3-0.2-0.7-0.5-0.8c-0.3-0.2-0.8-0.1-1,0.2c0,0-0.1,0.1-0.1,0.1c0,0,0,0,0,0
			c0-0.1,0.1-0.2,0.2-0.2c0.4-0.2,0.7-0.2,1.1,0c0.3,0.2,0.5,0.5,0.5,0.9c0,0.2,0,0.3-0.2,0.4c-0.2,0.1-0.2,0.3-0.2,0.5
			c0.2,0.4,0.6,0.5,0.9,0.1c0.1-0.2,0.1-0.4-0.1-0.5C15,14.5,15,14.3,15.1,14c0.1-0.6,0.8-1.1,1.5-0.6
			C16.7,13.5,16.9,13.5,16.8,13.8C16.8,13.7,16.8,13.7,16.8,13.8z"/>
		<path class="st8" d="M13.3,13.4c-0.1,0.1-0.2,0.1-0.2,0.2c0,0-0.1,0.1-0.1,0c0-0.1-0.1-0.2,0-0.2c0.1-0.2,0.1-0.3,0-0.5
			c0-0.4,0-0.7,0.1-1.1c0.1-0.3,0.2-0.5,0.5-0.7c0,0.1-0.1,0.2-0.1,0.3c-0.2,0.4-0.2,0.9-0.2,1.3c0,0.2,0,0.2,0.2,0.2
			C13.4,13.2,13.1,13.2,13.3,13.4z"/>
		<path class="st9" d="M16.5,18.4c0,0-0.1,0-0.1,0c-0.1-0.1-0.1-0.2-0.1-0.3c-0.1,0-0.1,0.1-0.2,0.1c-0.7,0.5-1.4,0.5-2.2,0
			c-0.2-0.1-0.2-0.1-0.3,0.1c0,0-0.1,0-0.1,0c0-0.2,0-0.3,0-0.5c0.3,0.1,0.6,0.3,0.8,0.4c0.5,0.3,0.9,0.2,1.4,0
			c0.3-0.1,0.5-0.3,0.8-0.5C16.5,17.9,16.5,18.1,16.5,18.4z"/>
		<path class="st10" d="M16.9,13.7c-0.1-0.1-0.2-0.2-0.3-0.3c0.1-0.1,0.1-0.1,0-0.2c0,0-0.1-0.1-0.1-0.1c0,0-0.1,0-0.1-0.1
			c0,0,0.1,0,0.1,0c0.1,0,0.1,0,0.1-0.1c0-0.6-0.1-1.1-0.4-1.6c-0.1-0.1-0.2-0.1-0.2-0.2c0.5,0.3,0.7,0.8,0.8,1.3c0,0.2,0,0.5,0,0.7
			c0,0.1,0,0.2,0.1,0.3C17,13.5,17,13.6,16.9,13.7C16.9,13.7,16.9,13.7,16.9,13.7z"/>
		<path class="st4" d="M13.3,15c0.3,0.2,0.6,0.2,1,0.1c0.1,0,0.1-0.1,0.1,0.1c0,0.1,0,0.1-0.1,0.1c-0.3,0.1-0.6,0.3-0.9,0.4
			c-0.1,0-0.1,0.1-0.2,0.1c0-0.1-0.1-0.2-0.1-0.3c0-0.1-0.1-0.1-0.2-0.1c-0.1,0-0.1,0.1-0.2,0.1c-0.1,0,0-0.1,0-0.2c0,0,0-0.1,0-0.1
			c0.1,0,0.2,0.1,0.3,0.1c0.1-0.1,0-0.2,0-0.2C13.2,15,13.2,15,13.3,15z"/>
		<path class="st4" d="M15.5,15.2c0,0,0-0.1,0-0.1c0.4,0.2,0.7,0.2,1.1,0c0,0,0.1,0,0.1-0.1c0,0-0.1,0.1,0.1,0.1
			c0.1,0,0.2-0.1,0.3-0.1c0.1,0.1,0.1,0.2,0.1,0.3c-0.1,0-0.2,0-0.2-0.1c-0.1,0-0.1,0.1-0.1,0.2c0,0.1-0.1,0.3-0.1,0.4
			c0,0-0.1,0-0.1,0c-0.2-0.3-0.6-0.4-0.9-0.5C15.6,15.3,15.5,15.3,15.5,15.2z"/>
		<path class="st11" d="M12.7,15.2c0,0.1,0,0.1,0,0.2c0.1,0,0.1,0,0.2,0c0,0,0,0.1,0,0.1c0.2,0.1,0.2,0.3,0.2,0.4
			c0,0.1,0,0.1-0.1,0.1c-0.1,0-0.2-0.1-0.2-0.1C12.7,15.6,12.7,15.4,12.7,15.2z"/>
		<path class="st12" d="M16.9,15.2c0.1,0,0.2,0,0.2,0.1c0,0.2,0,0.4-0.1,0.5c0,0.1-0.1,0.1-0.2,0.1c-0.1,0-0.1-0.1,0-0.2
			C16.8,15.5,16.9,15.4,16.9,15.2z"/>
		<path class="st13" d="M15.8,15.5c0.3,0,0.5,0.2,0.7,0.4c0,0,0.1,0.1,0.1,0.1c0.2,0.3,0.3,0.6,0.3,1c0,0-0.1,0-0.1-0.1
			c0-0.6-0.4-0.9-0.8-1.2C16,15.6,15.9,15.6,15.8,15.5z"/>
		<path class="st14" d="M13.3,16c0.2-0.2,0.4-0.4,0.7-0.5c0,0,0,0,0,0C13.8,15.7,13.6,15.9,13.3,16c-0.1,0.3-0.2,0.6-0.2,0.9
			c-0.1-0.1,0-0.3,0-0.4C13.1,16.3,13.2,16.2,13.3,16z"/>
		<path class="st15" d="M15.5,15.2c0,0.1,0.1,0,0.2,0.1c0.4,0.1,0.7,0.3,1,0.6c0,0,0,0.1-0.1,0.1c-0.3-0.3-0.6-0.4-1-0.6
			C15.5,15.3,15.4,15.3,15.5,15.2z"/>
		<path class="st16" d="M13.2,15.8c0.3-0.2,0.6-0.5,1.1-0.5c0,0,0.1,0,0.1-0.1c0.1,0.1,0,0.1-0.1,0.1c-0.4,0.1-0.7,0.3-0.9,0.6
			c0,0,0,0,0,0.1C13.2,15.9,13.3,15.8,13.2,15.8z"/>
		<path class="st17" d="M15.4,10.6c-0.4-0.2-0.8-0.1-1,0.2c0,0,0,0,0,0c0-0.1,0.1-0.1,0.1-0.1C14.8,10.4,15.1,10.3,15.4,10.6
			C15.4,10.5,15.4,10.5,15.4,10.6z"/>
		<path class="st18" d="M13.1,15.2C13.1,15.2,13.1,15.3,13.1,15.2c-0.2,0-0.3,0-0.3-0.1C12.9,15,12.9,15,13.1,15.2z"/>
		<path class="st19" d="M13.4,18.2c-0.1-0.1-0.1-0.1-0.1-0.2c0-0.1,0.1-0.1,0.2-0.1c0.1,0,0,0.1,0,0.1
			C13.4,18.1,13.4,18.2,13.4,18.2z"/>
		<path class="st20" d="M16.7,18c0,0,0.1,0.1,0.1,0.1c0,0,0,0,0,0c-0.1,0-0.1,0.1-0.2,0.2C16.6,18.2,16.6,18.1,16.7,18
			C16.6,18,16.6,18,16.7,18z"/>
		<path class="st21" d="M17,15c-0.1,0-0.1,0.1-0.2,0.1c0,0-0.1,0-0.1,0C16.8,14.9,16.9,14.9,17,15z"/>
		<path class="st4" d="M13.7,18.4c0-0.1,0-0.2,0-0.3c0.1,0,0.1,0.1,0.2,0.1c0.7,0.4,1.6,0.5,2.3-0.2c0,0,0,0,0.1-0.1
			c0,0.1,0,0.3,0.1,0.4c0,0-0.1,0.1-0.1,0.1c-0.3,0.1-0.5,0.3-0.7,0.6c-0.1,0.2-0.3,0.5-0.5,0.7c-0.2-0.3-0.4-0.6-0.6-0.9
			c-0.1-0.1-0.2-0.2-0.3-0.3C14,18.5,13.8,18.4,13.7,18.4z"/>
		<path class="st6" d="M16.8,18.1c0.1,0,0.1,0.1,0.1,0.1c0.1,0.3,0.2,0.5,0.4,0.8c0.1,0.1,0,0.2,0,0.3c-0.2,0.2-0.4,0.4-0.6,0.6
			c-0.2,0.1-0.1-0.1-0.1-0.1c-0.1-0.4-0.3-0.7-0.6-1.1c0.2-0.1,0.3-0.1,0.5-0.2C16.6,18.4,16.7,18.3,16.8,18.1z"/>
		<path class="st15" d="M15.4,15.3c-0.1,0.2-0.4,0.3-0.6,0.3c-0.2,0-0.3-0.2-0.4-0.4C14.7,15.4,15.1,15.4,15.4,15.3z"/>
		<path class="st22" d="M14.6,14.8c0.2-0.1,0.5-0.2,0.6-0.1c0,0,0.1,0,0,0.1c0,0,0,0,0,0c-0.1,0-0.2-0.1-0.3-0.1
			C14.8,14.8,14.7,14.9,14.6,14.8z"/>
		<path class="st23" d="M16.3,17c0.2,0.1,0.2,0.1,0.2,0.3c0,0-0.1-0.1-0.2-0.1c-0.9,0.4-1.8,0.3-2.8,0c-0.1,0-0.2-0.1-0.2,0.1
			c-0.1-0.2,0-0.3,0.2-0.3c0,0.1-0.1,0.1,0,0.2c0.9,0.3,1.8,0.4,2.7,0C16.5,17.1,16.5,17.1,16.3,17z"/>
		<path class="st24" d="M14.1,15.5C14.1,15.5,14.1,15.5,14.1,15.5c0-0.1,0.1-0.1,0.2-0.1C14.3,15.5,14.2,15.5,14.1,15.5z"/>
		<path class="st25" d="M13.7,14.1c0.1,0,0.2,0.1,0.2,0.1c0,0.1-0.1,0.2-0.2,0.2c-0.1,0-0.2-0.1-0.2-0.2
			C13.6,14.2,13.6,14.1,13.7,14.1z"/>
		<path class="st26" d="M16,14.2c0-0.1,0.1-0.2,0.2-0.2c0.1,0,0.2,0.1,0.2,0.2c0,0.1-0.1,0.2-0.2,0.2C16,14.4,16,14.3,16,14.2z"/>
	</g>
</g>
</svg>
