<?xml version="1.0" encoding="utf-8"?>
<!-- Generator: Adobe Illustrator 24.1.2, SVG Export Plug-In . SVG Version: 6.00 Build 0)  -->
<svg version="1.1" id="Layer_1" xmlns="http://www.w3.org/2000/svg" xmlns:xlink="http://www.w3.org/1999/xlink" x="0px" y="0px"
	 viewBox="0 0 200 200" style="enable-background:new 0 0 200 200;" xml:space="preserve">
<style type="text/css">
	.st0{fill:#28282A;}
	.st1{fill:#393736;}
	.st2{fill:#202022;}
	.st3{fill:#464444;}
	.st4{fill:#FADA0A;}
	.st5{fill:#AF8057;}
	.st6{fill:#FDFDFD;}
	.st7{fill:#232326;}
	.st8{fill:#F2B426;}
	.st9{fill:#F3B426;}
	.st10{fill:#F2B326;}
	.st11{fill:#F0B226;}
	.st12{fill:#F1B326;}
	.st13{fill:#F9F6F2;}
	.st14{fill:#F8F5F2;}
	.st15{fill:#F2B425;}
	.st16{fill:#F0B325;}
	.st17{fill:#4A4A49;}
	.st18{fill:#FAF9F1;}
	.st19{fill:#F0F0F0;}
	.st20{fill:#F3F3F3;}
	.st21{fill:#F9F7E3;}
	.st22{fill:#FDFCF0;}
	.st23{fill:#292928;}
	.st24{fill:#DFCAB8;}
	.st25{fill:#2F2E2D;}
	.st26{fill:#2B2A29;}
</style>
<path class="st0" d="M135.5,105.1c-0.6-3.2-2.7-4.8-6.3-4.4c1.1-2.3,1.9-4.1,2.8-5.9c0.6,0.3,0.7-0.1,0.7-0.6
	c-0.6-0.4-1.4-0.8-0.9-1.7c0.9-1.5,0.6-3.2,0.2-4.7c-0.5-2.1-0.8-3.9,0.7-5.8c1-1.2,0.8-3-0.1-4c-2-2.1-1.7-4.5-1.6-6.9
	c0-3.1,0.3-6.3,0.1-9.4c-0.7-9.6-4.4-17.6-13.2-22.6c-0.9-0.5-1.5-1.1-1.8-2.1c-0.6-0.2-1.2,0.1-1.8-0.2c-2-0.6-3.8-1.5-4.8-3.5
	c-0.5-1-1.3-1.9-2.7-1.7c-0.4,0.2-0.6,0.6-0.5,1c0,0.8,1.7,2.2-0.3,2.3c-5,0.3-9.9,0.2-14.9,0.1c-0.2,0-0.4-0.3-0.6-0.5
	c-0.3-0.3-0.6-0.6-1.1-0.5c-1.2,1.7-3.7,2-4.7,4c0.3,0.6,0.9,0.8,1.5,0.9c1,0.1,2.1-0.2,3.1-0.3c6.7-1,13.5-1.1,20.3-0.2
	c2.7,0.4,5.3,0.9,5.4,4.5c0,0.6,0.4,1.1,1.1,1.2c0.7,0,1-0.5,1.2-1c0.2-0.4,0.3-0.9,0.6-1.3c0.9,0.1,1.5,0.6,2.2,1.2
	c5.8,5,8.6,11.5,8.9,19c0.2,3.8,0,7.6,0,11.4c0,1.8,0.1,3.6,1.3,5.1c1,1.5,0.9,2.9-0.6,4c-0.3,0.3-0.6,0.6-0.7,1.1
	c0,0.5,0.1,0.9,0.2,1.4c2,5.9,1.3,11.2-3.2,15.7c-0.5,0.5-0.9,1-1,1.7c0,0.4,0.2,0.8,0.5,1c1.1,0,1.3,1.9,2.7,1.3
	c1.2-0.9,2.1-2.5,3.9-1.3c1.2,1.3,1.5,2.9,1.4,4.6c0.2,2.7-0.1,5.3-2.3,7.3c-0.5,0.4-1.1,0.9-1.8,0.4c-0.6-0.4-0.5-1-0.4-1.5
	c0.3-1.8,0.7-3.5,1.5-5.2c0.5-1,0.9-2-0.5-2.6c-1.5,0-1.8,1.2-2.2,2.2c-0.8,2.1-1.4,4.3-1.7,6.5c0,0.7-0.3,1.3-0.6,1.8
	c-0.2,0.8-0.2,1.6,0,2.4c2.7,4.4,4.8,9,3.9,14.4c-0.8,3-1.9,5.8-4.2,8c-5.6,5.4-11.8,9.8-19,12.7c-3.8,1.5-7.7,1.6-11.7,0.1
	c-5.3-2-10.4-4.4-14.9-7.6c-7.3-5.2-11.8-10.5-9.3-19.5c0.7-2.9,2.6-5.3,3.8-8c0-0.5-0.2-1-0.6-1.4c-0.9-0.7-0.7-1.8-0.9-2.8
	c-0.4-1.6-0.6-3.1-1.4-4.5c-0.9-1.6-1.9-3-4.1-2.6c-0.8,1.1,0,1.8,0.7,2.4c0.9,0.9,1.6,1.9,1.9,3.2c0.2,1,1.2,2.4-0.2,3.1
	c-1.3,0.7-2.3-0.5-3-1.5c-1.7-2.5-2.4-5.3-1.8-8.4c0.2-0.6,0.3-1.2,0.7-1.7c2-1.8,3.1,0.5,4.5,1c0.9,0,1.4-0.6,1.3-1.4
	c-0.2-1.9,1.2-0.6,1.7-1c0.4-0.2,0.6-0.6,0.6-1c-0.2-1.2-1.2-1.9-1.9-2.7c-3.8-4.4-4.7-9.3-2.3-14.7c0.4-0.9,0.9-1.7,0.8-2.7
	c-0.2-0.4-0.5-0.7-0.9-0.9c-2-0.8-1.5-2.5-1-3.9c0.8-2.1,1-4.3,0.6-6.4c-0.7-3.8-0.4-7.6,0.2-11.3c1-6.6,3.3-12.6,8.8-17
	c1.3-1.2,3.3-1.8,4.2-3.6c-0.2-0.8-0.7-0.9-1.3-0.4c-5.5,2.5-9,6.8-11.3,12.2c-2.7,6.4-3.2,13-2.6,19.9c0.2,1.7,0.9,3.6-0.2,5.3
	c-1.4,2.2-1,4.3,0,6.5c0.3,0.6,1,1.2,0.6,1.8c-2,3.3,0.2,7.8-3,10.8c-0.3,0.3-0.9,1.1-0.1,1.8c1.3-0.2,0.8-2.1,2.2-2.4
	c0.9,2.5,2.9,4.7,2.4,7.8c-4.2-0.9-5.7,0.1-6.2,4.3c-0.3,3.1,0,6.1,1.7,8.8c1,1.6,2.3,3.1,4.2,3c3.3,0,2.5,1.3,1.5,3.2
	c-4.2,8.3-3,15.8,3.5,22.4c0.5,0.5,1,0.9,1.4,1.4c1.2,1.5,0.7,2.9-1.1,3.1c-4.4,0.6-6.7,3.3-7.4,7.5c-0.5,3-1.3,6-2.6,8.7
	c-1.3,2.8-1.8,5.3,0.7,7.8c0.5,0.5,0.7,0.9,0.7,1.3c0.5,0.1,0.9,0.4,1.3,0.7V175c1.2,0.9,2.2,1.6,3.2,2.4c0.4-0.1,0.7-0.4,0.8-0.9
	c-0.7-2.2-2.9-2.9-4.2-4.5c-1.1-1.3-1.9-2.7-1.3-4.4c1.7-4.1,2.6-8.3,3.8-12.5c0.4-1.2,0.9-2.3,2.5-2.3c0.5-0.2,0.8-0.7,1.1-1
	c0.8-0.7,1.5-0.9,1.6,0.6c0.1,0.9-0.4,1.9,0.3,2.7c0.7,0.3,1.1,0,1.2-0.6c0.1,0.4,0.3,0.8,0.8,1.2c1.7-1.8,0.2-4.2,1.2-6.4
	c4.4,2.2,8.6,4.4,13,6.5c5.3,2.6,10.6,3.1,16.2,1.1c5.1-1.8,9.3-5.1,13.7-7.9c0.7-0.4,1.1-1.3,2.3-0.8c0.2,1.9,0,3.8,0.2,5.6
	c0.1,0.9-0.3,2.2,1.1,2.5c0.3-0.5,0.4-1.1,0.5-1.7v0.2c0,0.6,0.2,1.2,1,0.7c0.9-1.4,0.4-3.2,1.1-4.7c0.3-1.1-0.9-0.9-1.2-1.4
	c-0.9-2.3-1.1-4.4,1-6.4c2.9-2.9,4.4-6.6,4.9-10.7c0.5-4.7-0.7-8.8-3.3-12.7c-0.4-0.5-0.9-1.1-0.5-1.8s1-0.1,1.5,0
	c1.6,0.3,2.8-0.4,3.8-1.6C136.2,113.1,136.3,109.1,135.5,105.1L135.5,105.1z M76.2,153.1v-1.7C76.3,152,76.2,152.5,76.2,153.1z
	 M125.1,153.6c-0.1-0.9-0.2-1.8,0.1-2.6C125.1,151.7,125.1,152.6,125.1,153.6z"/>
<path class="st1" d="M85,37.6c0.4,0.2,0.9,0.4,1.3,0.6c-0.1,1-1,1.6-1.4,2.4c-0.4,0.8-0.7,2-1.9,1.6c-1.1-0.4-0.9-1.5-0.8-2.5
	c-0.4-0.2-0.8-0.3-1.1-0.5c1.5-0.7,2.3-1.8,2.6-3.6c1.1-5.5,4.5-8.9,10-10.4c0.9-0.3,2.1,0.1,2.8-0.9h6.8c6.6,1.9,11.1,5.8,13,12.6
	c-0.6,0.2-0.6,1.7-1.6,0.6c-0.8-2-1.7-4-3-5.7c-5.9-8-17.2-6.2-22.4-2.2C86.6,31.6,85.7,34.6,85,37.6z"/>
<path class="st2" d="M74.8,154.6c0.6,0.7,0.9,0.4,1.1-0.3c0.2-1-0.2-2.1,0.3-3.1c0.9,1.4-0.5,3.3,0.9,4.6c0.8-0.6,1.6-0.1,2.4,0.2
	c2.5,1.2,4.9,2.6,7.5,3.5c2.5,0.9,4.4,2.5,5.9,4.7c2.3,3.5,4.6,7,7,10.4c2.1,3.1,2.1,3.1,4,0.1c2.1-3.4,4.5-6.6,6.4-10.1
	c1.7-3.1,3.9-5.5,7.5-6.4c1.5-0.4,3-1.2,4.5-1.8c0.7-0.2,1.3-0.5,2,0c1.3-1.7,0-3.8,0.9-6.1c0.1,1.9,0.2,3.4,0.3,4.9l0.2,0.1
	c0.1,0,0.2-0.1,0.2-0.2c1-1.2,1.2-3.3,3.5-2.8c0.1,0.2,0.2,0.5,0.3,0.8c-0.6,3-3,4.3-5.5,5.3c-2.6,1.1-5.2,2.2-8,3
	c3.2,4,5.7,8.4,7.6,13.1c0.5,1.3,1.1,2.6,1,4.1c-0.2,0.6-0.3,1.2-1.1,1.1c-2.1-6.4-5-12.5-9.5-17.8c-3.6,5.7-7.3,11.1-10.7,16.7
	c-1.4,2.3-2.1,1.9-3.4-0.1c-3.3-5.1-6.8-10.1-10.3-15.3c-4.5,5.9-8.7,11.6-10.7,18.6c-0.6,2-1.5,2.2-3,0.9c-2-1.8-4-3.5-6-5.2
	c0.2-0.2,0.4-0.4,0.7-0.6c2.1,0.1,3.3,1.7,4.6,2.9c1.3,1.1,2.1,1.1,2.6-0.6c1.8-5.2,4.9-9.6,8-14c1.7-2.4,1.7-2.4-1-3.8
	c-3.6-1.9-7.5-3.1-10.9-5.3c-1.1-0.7-2.8-1.1-2.3-3.1c0.2-0.4,0.4-0.9,0.6-1.3C73.3,152.6,74.6,153.1,74.8,154.6L74.8,154.6z"/>
<path class="st2" d="M130.5,151.7c-0.4,0.7-0.8,0-1.3,0.1c-1,0.1-1.9-0.1-2.2-1.3c-0.4-0.4-0.8-0.7-1.1-1.1
	C127.9,149.4,129.4,150.2,130.5,151.7z"/>
<path class="st3" d="M132,94.8c0.2-0.2,0.5-0.4,0.7-0.6c1.4,0.4,1.8,1.3,1.9,2.8C133.1,96.7,133,95.3,132,94.8z"/>
<path class="st4" d="M82.1,39.7c1.3,0.2,0.1,1.9,1.4,2.2c0.6-1.4,0.6-3.5,2.7-3.8c7.8-1.4,15.6-1.9,23.5-0.7
	c0.8,0.1,1.7,0.4,2.5,0.6c2.6,0.4,4.2,1.6,3.6,4.5c-0.1,0.4-0.1,1,0.7,1.2c0.8-0.8,0.2-1.9,0.3-2.8c0.1-1,0.5-0.8,1.1-0.4
	c6.4,5.2,8.1,12.5,9.2,20.1c0.4,2.5,0.8,5,0.7,7.6c-0.1,1.9-0.1,3.7-2.8,3.8c3.3,3.3,3.4,4.3,1.1,5.9c-1.3,0-2.3-0.7-3.4-1.2
	c-11.1-4.9-21.3,5.2-20.5,14.3c0.2,2.4,0.8,4.4,2.5,6.1c1.2,1.2,2.4,2.4,3.1,4.1c0.9,2.4,1,4.6-1.1,6.5c-5.3,2.8-10.4,3-15.2-1.3
	c-1.5-2.8-1.3-5.9,1.7-8.1c4.7-3.6,5.1-7.9,3-12.8c-2.4-5.5-6.7-8.5-12.7-9c-2.9-0.2-5.7,0-8.2,1.5c-0.7,0.4-1.6,0.7-2.5,0.4
	c-1.5-2.3-1.4-2.6,1.8-6.4c-2-0.3-2.6-1.8-2.7-3.5C71.2,61,71.6,53.7,75,46.8c0.8-1.6,2-3,3.1-4.4C79.4,41.6,80.8,40.7,82.1,39.7
	L82.1,39.7z"/>
<path class="st5" d="M130.4,134.1c-1.2,4.9-4.1,8.7-8.1,11.6c-4.7,3.5-9.4,7-14.9,9.2c-4.5,1.8-9.1,2.1-13.5,0
	c-7.2-3.4-14.9-6.2-20.3-12.6c-3.9-4.5-5.3-9.5-3.3-15.3c1.5,2-0.3,4,0.2,5.5c0-10.2,6.9-16.2,15.1-21.3c1.2-0.5,2.3-1.3,3.6-1.5
	c0.8-0.1,0.2-0.6,0.4-0.8c1.5-1.2,2.4-0.2,3.4,0.8c3.5,3.5,7.9,3.8,11.8,0.9c4.1-3.1,4.8-3.1,9.1,0c4,2.9,8.5,5.2,11.6,9.4
	c2.7,3.7,4.8,7.5,4.6,12.2C129.9,132.9,130.1,133.5,130.4,134.1z"/>
<path class="st6" d="M73.8,103.1c-7-6.3-8.1-12.4-3.6-20.5c0-1.5,1.1-2.3,2.2-3.1c6.7-4.6,14.1-4.5,20.2,0.6c3.9,3.3,6.2,8.1,4.6,13
	c-1.3,4.3-5.1,7.6-8.3,10.6c-2.8,2.6-7.1,2.9-11.1,1.8C76.3,105.1,74.6,104.8,73.8,103.1z M129.5,83.2c3.2,7.7,2,13.3-4.2,19.4
	c-1.4,2.7-4.2,2.9-6.6,2.9c-4.8,0.1-9.3-0.8-11.7-5.8c-0.2-0.5-0.7-0.9-1.1-1.3c-4.9-5.1-5.2-11.9-0.6-17.2c6.1-7.2,14-7.8,21.6-2.2
	C128.2,80,129.4,81.3,129.5,83.2z M71.8,153.1c1,2.1,3,2.8,4.8,3.7c3.2,1.6,6.4,3.2,9.7,4.6c2,0.8,2.6,1.5,0.9,3.4
	c-2.1,2.5-3.8,5.4-5.6,8.2c-1.8,2.8-3.1,5.8-4,9.4c-2.4-1.9-4.7-3.7-6.9-5.5c-1.7-1.5-3.3-3.1-5-4.6c-1.6-1.4-2-3.1-1.2-4.8
	c1.8-3.7,2.8-7.6,3.6-11.6c0.3-1.2,0.8-2.3,1.6-3.3C71,151.2,71.4,152.2,71.8,153.1L71.8,153.1z"/>
<path class="st7" d="M129.5,83.2c-5.8-8.6-15.2-9-21.4-4c-3.9,3.1-5.8,7.2-5.4,12.2c0.2,2.3,0.6,4.5,2.9,5.8c0.6,0.3,1,0.9,1.4,1.4
	c5.5,7,10.5,8.1,18.3,3.9c0.2,0.2,0.5,0.4,0.7,0.6c-0.1,1.5-1.4,1.9-2.4,2.4c-3.7,1.6-7.5,1.6-11.3,0.3c-0.9-0.3-1.9-1.2-2.7,0.1
	c-0.2,1.7,1.2,1.4,2.1,1.7c4.7,1.4,8.9,3.5,12.7,6.6c0.8,0.7,2,1.2,1.6,2.7c0.2,0.6,0.9,1.2,0,1.7c-1.1,0.3-1.7-0.5-2.4-1.2
	c-2.9-2.9-6.4-4.7-10.1-6.3c-4-2.8-4.7-2.8-8.3,0c-4.1,3.3-9.3,2.9-13-1c-0.8-0.9-1.5-1.8-2.8-0.7c-1.1,1.1-2.7,1.2-3.9,2.1
	c-3.2,1.6-6.1,3.6-8.7,6.2c-0.7,0.7-1.4,1.9-2.8,1.5c-0.5-0.3-0.5-0.8-0.6-1.3c0.4-2.4,2.4-3.5,4.1-4.9c3-2.4,6.5-3.9,10-5.3
	c0.7-0.3,2.1-0.1,1.7-1.6c-1.1-0.7-2,0-2.9,0.3c-3.8,1.2-7.6,1.1-11.2-0.6c-0.9-0.4-2.2-0.6-2.1-2.1c0.3-0.2,0.5-0.4,0.8-0.6
	c3.8,2.1,7.8,2.9,12,1.5c2.5-0.8,4.8-1.7,5.5-4.7c0.4-1.5,1.5-2.8,2.9-3.4c2.3-1,2.6-2.8,2.7-4.9c0.4-5.5-3-10.9-8.3-13.5
	c-5.4-2.6-11.9-1.7-16.4,2.4c-0.7,0.6-1.3,1.3-2,2c-0.2-0.2-0.4-0.5-0.6-0.7c0.4-2,1.8-3.1,3.6-3.7c5.6-3.2,11.3-3.7,17-0.4
	c5.2,3,8,7.6,7.9,13.8c0,2.6-0.6,4.7-3.3,6.1c-2.9,1.6-3.9,4.9-3.1,8.4c2.7,5.7,9.1,7.4,14.9,1.2c1.6-3.3,1.3-6.5-1.5-8.6
	c-4-3-4.1-7-3.4-11.2c1.6-9,12.8-17,24.2-9.8c2.3,0.8,4.2,2,4.1,4.9C129.9,82.7,129.7,83,129.5,83.2z"/>
<path class="st8" d="M73.2,78.2c-1.2,1.3-2.8,2.1-3.6,3.7c-0.6,0.5-1.2,1.8-1.9,0c-0.4-1.2-0.8-2.6-0.2-3.6c1.8-2.6,0.9-5.3,0.7-8
	c-0.5-5.8,0.1-11.5,2-17.1c1.6-4.3,3.9-8.2,7.8-10.8c-0.2,1.9-1.6,3.1-2.4,4.7c-3.4,6.7-3.7,14-3.1,21.3c0.2,2.5,0.5,2.5,3.3,3.1
	C75.5,74,70.8,74.6,73.2,78.2z"/>
<path class="st9" d="M124.3,156.4c-0.6,0.2-1.2,0.3-1.8,0.5c-1.8-1-1-2.8-1.3-4.6c-1.2,0.6-2.1,1.5-3.2,2.2
	c-11.4,7.5-22.9,7.4-34.6,0.7c-2.9-1.6-2.9-1.7-4.2,1.2c-0.7-0.2-1.4-0.5-2.2-0.7V148c4.5,2.3,8.8,4.5,13,6.8
	c7.5,4.1,14.7,3.5,21.9-0.6c4.1-2.4,7.9-5.2,12-8.1C124.3,149.6,124.5,153,124.3,156.4L124.3,156.4z"/>
<path class="st10" d="M130.1,82.4c-0.8-2.1-2.6-3.3-4.1-4.9c2.1-0.9,1.3-2.2,0.4-3.3c-0.5-0.6-1.2-0.8-1.9-1.2
	c-0.5-0.3-1.1-0.5-1-1.2c0.1-0.7,0.9-0.6,1.4-0.6c1.2,0,2.4,0.1,2.3-1.7c-0.3-8.9-1.2-17.6-6.3-25.3c-0.9-1.3-2.5-2.1-2.9-3.8
	c8.2,4.7,11.3,12.3,12,21.2c0.3,4,0,8-0.1,11.9c0,1.6,0.1,2.9,1.3,4.1c1.3,1.4,1.3,3.1,0.1,4.7C130.8,83,130.5,82.7,130.1,82.4z"/>
<path class="st4" d="M73,103.7c4.8,3.6,10,3.5,15.3,1.2c1.3-0.6,2.1-0.8,1.9,1.1c0.4,1,0,1.4-0.9,1.6c-5.3,1.2-9.7,4-14.1,7.1
	c-0.8,0.6-1.5,1.5-2.7,1.2c-0.6-1.7-1-3.4-1.7-5c-0.6-1.4-1.7-2.2-3.2-2.3c-0.9,0.6-1.8,1.8-2.9,1c-0.9-0.8-0.5-2-0.3-3
	c0-0.6,0-1.2,0.5-1.7c2-0.6,3.5,1.4,5.4,1c1.5-1-0.3-2.4,0.6-3.6C71.6,102.8,72.3,103.3,73,103.7z M108.8,106
	c0.1-0.7,0.1-1.5,0.2-2.4c5.8,3,11.5,3.9,17-0.4c0.5-0.3,0.9-0.6,1.4-0.9c0.7,0.4-0.9,2,0.9,1.9c1.8,0.2,2.8-2.1,4.7-1.4
	c1.2,1.4,1.6,3.1,1.5,4.9c-1.5,0.3-2.7-0.5-4-1.1c-1.7,0.2-1.7,1.8-2.1,2.9c-0.7,2-1,4.1-1.5,6.2c-0.6,0.5-1,0.1-1.4-0.4
	c-4-4.2-8.8-6.8-14.5-8C110.2,107.3,108.8,107.6,108.8,106z"/>
<path class="st11" d="M64.4,106.6c0.1,0.8,0.1,1.7,0.2,2.6c1.1-0.3,2-0.5,2.9-0.7c-0.1,0.4-0.5,0.9,0.2,1.2c3,1.3,2.9,4.2,3.5,6.7
	c0.3,1.4-0.6,1.6-1.7,1.6c-1.6-0.1-2.9-1-3.7-2.4C64.2,112.8,63.6,109.8,64.4,106.6z"/>
<path class="st12" d="M130.5,106.7c1.5-0.2,2.8,0.1,4,1.1c0.5,3-0.2,5.6-2.2,7.9c-0.8,0.9-1.7,1.5-3,1c-1.5-0.6-0.8-1.8-0.8-2.9
	C128.6,111.2,130.6,109.2,130.5,106.7z"/>
<path class="st13" d="M113.5,111.1c4.5,0.6,7.8,3.4,11,6.2c0.5,0.4,0.9,0.9,1.4,1.3c3.6,4.5,5.4,9.6,4.5,15.4
	c-0.6-0.3-0.8-0.7-0.9-1.4c-0.3-8.8-5.6-14.3-12.2-19C116.1,112.9,114.4,112.5,113.5,111.1z"/>
<path class="st14" d="M74.1,119.2c3.3-3.3,6.8-6.4,11.3-8.1c0.7-0.3,0.8,0.1,0.7,0.6c-4,2.2-7.6,5-10.5,8.6c-3.2,3.8-4.8,8.3-5,13.3
	c-1-2.2-0.2-4.4-0.4-6.6C70.8,124.1,72.4,121.6,74.1,119.2z"/>
<path class="st15" d="M108.8,106c0.6,1,1.7,0.6,2.6,0.8c6.2,1.2,11.2,4.5,15.5,9c0.1,0.8-0.1,1.3-1,1.2c-4.2-4.8-9.9-7.2-15.8-8.9
	C109.1,107.8,107.5,107.8,108.8,106z"/>
<path class="st16" d="M72.5,115.8c5.1-3.8,10.2-7.6,16.7-8.6c0.7-0.1,0.8-0.6,1-1.2c1.2,1.7-0.3,1.9-1.3,2.2
	c-5.6,1.8-10.6,4.5-14.7,8.9c-0.3,0.3-0.4,0.6-0.6,0.9C71.4,118.1,72.9,116.5,72.5,115.8z"/>
<path class="st17" d="M106.6,32.3c-5.9-2.4-12.8-1.4-16.5,2.5c-0.2-0.2-0.4-0.4-0.6-0.7c0.3-1.2,1.3-1.9,2.3-2.3
	c5.1-1.9,10.2-3.1,15.3,0C107,32,106.8,32.1,106.6,32.3z"/>
<path class="st18" d="M70.3,105.9c0,0.9-0.3,1.8-1.2,1c-1.3-1.1-3-1-4.2-2C66.9,103.2,68,103.4,70.3,105.9z"/>
<path class="st19" d="M74.8,154.6c-0.9-0.9-2-1.5-2.4-2.8c0-1.9,1.6-1.2,2.5-1.3c0.9,0,0.6,1,0.5,1.6
	C75.3,152.9,75.9,154,74.8,154.6z"/>
<path class="st20" d="M127.1,150.5c0.7,0.4,1.4,0.9,2.2,1.3c0,0.2,0,0.3,0.1,0.5c-1.6,0.3-1.8,2.3-3.4,2.8c-0.1-1.1-0.1-2.2-0.2-3.3
	C125.8,150.8,126.2,150.5,127.1,150.5z"/>
<path class="st21" d="M133,102.9c-1,0.8-2.3,1-3.2,2c-0.7,0.8-1.3,0.4-1.5-0.6C129.7,101.6,130.5,101.3,133,102.9z"/>
<path class="st4" d="M79.3,156.4c0.3-1.4-0.7-3.5,0.6-4.2c1-0.5,2.2,1.4,3.4,2.1c11.1,6.8,24.9,7.5,37.2-2.5
	c0.3-0.3,0.7-0.6,1.2-0.9c0.7,2.1-0.3,4.2,0.8,6c-0.7,0.3-1.3,0.9-2,1c-5.5,1.1-8.7,4.7-11.2,9.4c-2.1,3.9-4.8,7.5-7.4,11.6
	c-3.2-4.8-6.4-9.3-9.3-13.9c-1.4-2.2-3.1-3.7-5.5-4.7C84.4,159.2,81.9,157.8,79.3,156.4L79.3,156.4z"/>
<path class="st6" d="M129.4,153c1.3-0.4,1.3,0.8,1.6,1.5c1.8,4.3,3.8,8.5,6.1,12.5c1,1.8,0.4,3.3-0.7,4.7c-2.8,3.5-6.2,6.5-9.7,9.1
	c-2.6,1.9-1.1-1.9-2.3-2.2c-1.6-6.4-5.1-11.9-9-17.3c2.8-1.1,5.5-2.1,8.2-3.2C126,156.9,128.2,155.6,129.4,153z"/>
<path class="st15" d="M106.7,107.2c-1.2,3.4-5.8,5.2-8.9,4.7c-3.2-0.5-5.3-2.5-6-5.9C96.5,109.9,101.5,109.6,106.7,107.2z"/>
<path class="st22" d="M94,100.1c2.5-2.2,7.4-2.8,9.6-1.2c0.4,0.3,0.8,0.5,0.7,1.1c0,0.2-0.4,0.4-0.6,0.4c-1.7-0.2-3.2-1.1-4.9-1
	C97.2,99.4,95.9,100.9,94,100.1z"/>
<path class="st23" d="M122.1,134.1c3.2,0.9,3.7,1.9,2.9,5.2c-0.7-0.6-0.9-1.7-2.4-1.1c-14.6,6.3-29.3,5.4-44,0
	c-1.3-0.5-2.6-1.6-3,1.2c-1.4-3.2-0.7-4.6,2.5-5.3c-0.5,1-2.3,1.9,0.2,2.8c14.4,5.3,28.7,6.4,43.2,0.5
	C123.9,136.5,123.9,136.4,122.1,134.1z"/>
<path class="st24" d="M86.1,111.8c-0.2-0.2-0.4-0.4-0.7-0.6c1.2-1,2.6-1.3,4-1.7C89.1,111.2,87.2,111,86.1,111.8z"/>
<path class="st25" d="M80.2,88.8c1.5,0.1,2.5,0.8,2.6,2.4c0.1,1.7-0.8,2.7-2.5,2.8c-1.5,0-2.5-1-2.5-2.5S78.6,89,80.2,88.8z"/>
<path class="st26" d="M116,91.1c0.2-1.6,1-2.6,2.5-2.6s2.4,1,2.4,2.6s-0.9,2.5-2.5,2.5C116.9,93.6,116.2,92.5,116,91.1z"/>
</svg>
